<svg xmlns="http://www.w3.org/2000/svg" xmlns:xlink="http://www.w3.org/1999/xlink" version="1.1" x="0px" y="0px" viewBox="0 0 64 80" enable-background="new 0 0 64 64" xml:space="preserve"><g><path fill="#000000" d="M9.6,6.4c2.7,0,5.4,0,8.2,0c0,1.3,0,2.6,0,4.2c0.6-0.4,1-0.7,1.3-0.9c3.5-2.7,7-5.4,10.5-8.1   c1.6-1.2,3.4-1.2,5.2,0.2c5,3.8,10,7.7,15,11.5c4.1,3.1,8.1,6.3,12.2,9.4c1.1,0.8,1.8,1.8,1.5,3.1c-0.5,2.5-3.8,3.5-6.1,1.7   c-3.5-2.6-6.9-5.3-10.4-8c-4.6-3.5-9.1-7-13.6-10.5c-1-0.8-1.6-0.8-2.6,0c-7.9,6.2-15.9,12.3-24,18.4c-0.6,0.4-1.2,0.8-1.9,1   c-1.6,0.5-3.3-0.2-4.1-1.4c-0.9-1.2-0.6-2.9,0.8-4c2.3-1.8,4.7-3.6,7-5.5c0.5-0.4,0.9-1.2,0.9-1.8C9.7,12.7,9.6,9.6,9.6,6.4z"/><path fill="#000000" d="M23.4,25.1h5.8V33h-7.9v-5.8C21.3,26.1,22.3,25.1,23.4,25.1z"/><path fill="#000000" d="M21.3,37.7h7.9v7.9h-5.8c-1.2,0-2.1-0.9-2.1-2.1L21.3,37.7L21.3,37.7z"/><path fill="#000000" d="M42.7,27.2V33h-7.9v-7.9h5.8C41.7,25.1,42.7,26.1,42.7,27.2z"/><path fill="#000000" d="M42.7,37.7v1.9c-2.2,1.7-3.8,4.2-4.6,5.6c-0.1,0.1-0.1,0.2-0.2,0.4c0,0,0,0,0,0h-3v-7.9   C34.8,37.7,42.7,37.7,42.7,37.7z"/><path fill="#000000" d="M62.8,36.3c0,0.1-3,0.5-3.2,0.6c-1.6,0.3-3.2,0.5-4.8,0.8c-3.3,0.6-6.5,1.4-9.3,3.1   c-0.3,0.2-0.6,0.4-0.9,0.6c-1.7,1.2-3.3,3.3-4.4,5.1c-0.1,0.1-0.1,0.2-0.2,0.4c-1.5,2.6-2.5,5.4-3.1,8.3c-0.2,0.8-0.3,1.6-0.4,2.4   c0,0.3-0.2,2.3-0.3,3.5c0.1-0.1,0.4-0.3,0.9-0.7c0.6-0.5,1.4-1.1,2.4-1.9c1-0.8,2.1-1.8,3.4-2.8c0.6-0.5,1.2-1.1,1.9-1.7   c0.3-0.2,0.5-0.5,0.8-0.7v0c0.4-0.3,0.7-0.6,1.1-1c0.6-0.6,1.2-1.2,1.8-1.8c0.6-0.6,1.2-1.2,1.8-1.8c0.6-0.6,1.1-1.2,1.6-1.7   c0.1-0.1,0.1-0.1,0.2-0.2h0.3l0,0c-0.1,0.1-0.2,0.2-0.3,0.4c-0.5,0.6-1,1.1-1.5,1.8c-0.5,0.6-1.1,1.2-1.7,1.8   c-0.6,0.6-1.2,1.2-1.8,1.9c-0.5,0.5-1,1-1.5,1.4v0c-0.1,0.1-0.3,0.2-0.4,0.4c-0.6,0.6-1.2,1.2-1.8,1.7c-1.2,1.1-2.3,2.1-3.3,3   c-1,0.9-1.8,1.6-2.4,2.1c-0.5,0.4-0.8,0.6-0.9,0.7C64.3,60.6,62.8,36.3,62.8,36.3z"/><path fill="#000000" d="M30.9,55.9c-0.7-0.9-1.5-1.6-2.3-2.3C20,46.4,10,51.9,10,51.9c0,0,1.2,1.7,1.3,1.9c2.1,3,4.1,6.3,7.4,8.1   c1.3,0.7,3.1,1.1,4.6,1.2c2.7,0.3,5.6-0.1,8.2-1c0.3-0.1,2.9-1,2.9-1.1C33.3,59,32.1,57.3,30.9,55.9z"/></g></svg>